<svg width="16" height="23" viewBox="0 0 16 23" fill="none" xmlns="http://www.w3.org/2000/svg">
<path d="M4.8 23C4.51667 23 4.27917 22.9042 4.0875 22.7125C3.89583 22.5208 3.8 22.2833 3.8 22V10C3.8 9.71667 3.89583 9.47917 4.0875 9.2875C4.27917 9.09583 4.51667 9 4.8 9H10.8C11.0833 9 11.3208 9.09583 11.5125 9.2875C11.7042 9.47917 11.8 9.71667 11.8 10V22C11.8 22.2833 11.7042 22.5208 11.5125 22.7125C11.3208 22.9042 11.0833 23 10.8 23H4.8ZM7.8 14.25C8.15 14.25 8.44583 14.1292 8.6875 13.8875C8.92917 13.6458 9.05 13.35 9.05 13C9.05 12.65 8.92917 12.3542 8.6875 12.1125C8.44583 11.8708 8.15 11.75 7.8 11.75C7.45 11.75 7.15417 11.8708 6.9125 12.1125C6.67083 12.3542 6.55 12.65 6.55 13C6.55 13.35 6.67083 13.6458 6.9125 13.8875C7.15417 14.1292 7.45 14.25 7.8 14.25ZM4.25 7.45L2.85 6.05C3.51667 5.38333 4.275 4.875 5.125 4.525C5.975 4.175 6.86667 4 7.8 4C8.73333 4 9.625 4.175 10.475 4.525C11.325 4.875 12.0833 5.38333 12.75 6.05L11.35 7.45C10.8667 6.96667 10.3208 6.60417 9.7125 6.3625C9.10417 6.12083 8.46667 6 7.8 6C7.13333 6 6.49583 6.12083 5.8875 6.3625C5.27917 6.60417 4.73333 6.96667 4.25 7.45ZM1.45 4.65L0 3.2C1.05 2.18333 2.24583 1.39583 3.5875 0.8375C4.92917 0.279167 6.33333 0 7.8 0C9.26667 0 10.6708 0.279167 12.0125 0.8375C13.3542 1.39583 14.5333 2.2 15.55 3.25L14.15 4.65C13.3167 3.78333 12.35 3.125 11.25 2.675C10.15 2.225 9 2 7.8 2C6.6 2 5.45 2.225 4.35 2.675C3.25 3.125 2.28333 3.78333 1.45 4.65ZM5.8 21H9.8V11H5.8V21ZM5.8 21H9.8H5.8Z" fill="#B8C3FF"/>
</svg>
