<svg width="32" height="28" viewBox="0 0 32 28" fill="none" xmlns="http://www.w3.org/2000/svg">
<path d="M5.33333 24.5V26.25C5.33333 26.7458 5.16296 27.1615 4.82222 27.4969C4.48148 27.8323 4.05926 28 3.55556 28H1.77778C1.27407 28 0.851852 27.8323 0.511111 27.4969C0.17037 27.1615 0 26.7458 0 26.25V12.25L3.73333 1.75C3.91111 1.225 4.22963 0.802083 4.68889 0.48125C5.14815 0.160417 5.65926 0 6.22222 0H25.7778C26.3407 0 26.8519 0.160417 27.3111 0.48125C27.7704 0.802083 28.0889 1.225 28.2667 1.75L32 12.25V26.25C32 26.7458 31.8296 27.1615 31.4889 27.4969C31.1481 27.8323 30.7259 28 30.2222 28H28.4444C27.9407 28 27.5185 27.8323 27.1778 27.4969C26.837 27.1615 26.6667 26.7458 26.6667 26.25V24.5H5.33333ZM4.97778 8.75H27.0222L25.1556 3.5H6.84444L4.97778 8.75ZM8 19.25C8.74074 19.25 9.37037 18.9948 9.88889 18.4844C10.4074 17.974 10.6667 17.3542 10.6667 16.625C10.6667 15.8958 10.4074 15.276 9.88889 14.7656C9.37037 14.2552 8.74074 14 8 14C7.25926 14 6.62963 14.2552 6.11111 14.7656C5.59259 15.276 5.33333 15.8958 5.33333 16.625C5.33333 17.3542 5.59259 17.974 6.11111 18.4844C6.62963 18.9948 7.25926 19.25 8 19.25ZM24 19.25C24.7407 19.25 25.3704 18.9948 25.8889 18.4844C26.4074 17.974 26.6667 17.3542 26.6667 16.625C26.6667 15.8958 26.4074 15.276 25.8889 14.7656C25.3704 14.2552 24.7407 14 24 14C23.2593 14 22.6296 14.2552 22.1111 14.7656C21.5926 15.276 21.3333 15.8958 21.3333 16.625C21.3333 17.3542 21.5926 17.974 22.1111 18.4844C22.6296 18.9948 23.2593 19.25 24 19.25ZM3.55556 21H28.4444V12.25H3.55556V21Z" fill="#B8C3FF"/>
</svg>
