<svg width="32" height="32" viewBox="0 0 32 32" fill="none" xmlns="http://www.w3.org/2000/svg">
<path d="M32 32L25.6 25.6H9.6C8.72 25.6 7.96667 25.2867 7.34 24.66C6.71333 24.0333 6.4 23.28 6.4 22.4V20.8H24C24.88 20.8 25.6333 20.4867 26.26 19.86C26.8867 19.2333 27.2 18.48 27.2 17.6V6.4H28.8C29.68 6.4 30.4333 6.71333 31.06 7.34C31.6867 7.96667 32 8.72 32 9.6V32ZM3.2 16.28L5.08 14.4H20.8V3.2H3.2V16.28ZM0 24V3.2C0 2.32 0.313333 1.56667 0.94 0.94C1.56667 0.313333 2.32 0 3.2 0H20.8C21.68 0 22.4333 0.313333 23.06 0.94C23.6867 1.56667 24 2.32 24 3.2V14.4C24 15.28 23.6867 16.0333 23.06 16.66C22.4333 17.2867 21.68 17.6 20.8 17.6H6.4L0 24Z" fill="#C4C5D9"/>
</svg>
