<svg width="32" height="32" viewBox="0 0 32 32" fill="none" xmlns="http://www.w3.org/2000/svg">
<path d="M11.6219 32L10.9851 26.88C10.6401 26.7467 10.3151 26.5867 10.01 26.4C9.70481 26.2133 9.4063 26.0133 9.11443 25.8L4.37811 27.8L0 20.2L4.0995 17.08C4.07297 16.8933 4.0597 16.7133 4.0597 16.54C4.0597 16.3667 4.0597 16.1867 4.0597 16C4.0597 15.8133 4.0597 15.6333 4.0597 15.46C4.0597 15.2867 4.07297 15.1067 4.0995 14.92L0 11.8L4.37811 4.2L9.11443 6.2C9.4063 5.98667 9.71144 5.78667 10.0299 5.6C10.3483 5.41333 10.6667 5.25333 10.9851 5.12L11.6219 0H20.3781L21.0149 5.12C21.3599 5.25333 21.6849 5.41333 21.99 5.6C22.2952 5.78667 22.5937 5.98667 22.8856 6.2L27.6219 4.2L32 11.8L27.9005 14.92C27.927 15.1067 27.9403 15.2867 27.9403 15.46C27.9403 15.6333 27.9403 15.8133 27.9403 16C27.9403 16.1867 27.9403 16.3667 27.9403 16.54C27.9403 16.7133 27.9138 16.8933 27.8607 17.08L31.9602 20.2L27.5821 27.8L22.8856 25.8C22.5937 26.0133 22.2886 26.2133 21.9701 26.4C21.6517 26.5867 21.3333 26.7467 21.0149 26.88L20.3781 32H11.6219ZM14.408 28.8H17.5522L18.1095 24.56C18.932 24.3467 19.6949 24.0333 20.398 23.62C21.1012 23.2067 21.7446 22.7067 22.3284 22.12L26.2687 23.76L27.8209 21.04L24.398 18.44C24.5307 18.0667 24.6235 17.6733 24.6766 17.26C24.7297 16.8467 24.7562 16.4267 24.7562 16C24.7562 15.5733 24.7297 15.1533 24.6766 14.74C24.6235 14.3267 24.5307 13.9333 24.398 13.56L27.8209 10.96L26.2687 8.24L22.3284 9.92C21.7446 9.30667 21.1012 8.79333 20.398 8.38C19.6949 7.96667 18.932 7.65333 18.1095 7.44L17.592 3.2H14.4478L13.8905 7.44C13.068 7.65333 12.3051 7.96667 11.602 8.38C10.8988 8.79333 10.2554 9.29333 9.67164 9.88L5.73134 8.24L4.1791 10.96L7.60199 13.52C7.46932 13.92 7.37645 14.32 7.32338 14.72C7.27032 15.12 7.24378 15.5467 7.24378 16C7.24378 16.4267 7.27032 16.84 7.32338 17.24C7.37645 17.64 7.46932 18.04 7.60199 18.44L4.1791 21.04L5.73134 23.76L9.67164 22.08C10.2554 22.6933 10.8988 23.2067 11.602 23.62C12.3051 24.0333 13.068 24.3467 13.8905 24.56L14.408 28.8ZM16.0796 21.6C17.6186 21.6 18.932 21.0533 20.0199 19.96C21.1078 18.8667 21.6517 17.5467 21.6517 16C21.6517 14.4533 21.1078 13.1333 20.0199 12.04C18.932 10.9467 17.6186 10.4 16.0796 10.4C14.5141 10.4 13.194 10.9467 12.1194 12.04C11.0448 13.1333 10.5075 14.4533 10.5075 16C10.5075 17.5467 11.0448 18.8667 12.1194 19.96C13.194 21.0533 14.5141 21.6 16.0796 21.6Z" fill="#C4C5D9"/>
</svg>
