<svg width="14" height="15" viewBox="0 0 14 15" fill="none" xmlns="http://www.w3.org/2000/svg">
<path d="M0 15V1.66667C0 1.20833 0.163194 0.815972 0.489583 0.489583C0.815972 0.163194 1.20833 0 1.66667 0H6.66667C7.125 0 7.51736 0.163194 7.84375 0.489583C8.17014 0.815972 8.33333 1.20833 8.33333 1.66667V7.5H9.16667C9.625 7.5 10.0174 7.66319 10.3438 7.98958C10.6701 8.31597 10.8333 8.70833 10.8333 9.16667V12.9167C10.8333 13.1528 10.9132 13.3507 11.0729 13.5104C11.2326 13.6701 11.4306 13.75 11.6667 13.75C11.9028 13.75 12.1007 13.6701 12.2604 13.5104C12.4201 13.3507 12.5 13.1528 12.5 12.9167V6.91667C12.375 6.98611 12.2431 7.03125 12.1042 7.05208C11.9653 7.07292 11.8194 7.08333 11.6667 7.08333C11.0833 7.08333 10.5903 6.88194 10.1875 6.47917C9.78472 6.07639 9.58333 5.58333 9.58333 5C9.58333 4.55556 9.70486 4.15625 9.94792 3.80208C10.191 3.44792 10.5139 3.19444 10.9167 3.04167L9.16667 1.29167L10.0417 0.416667L13.125 3.41667C13.3333 3.625 13.4896 3.86806 13.5938 4.14583C13.6979 4.42361 13.75 4.70833 13.75 5V12.9167C13.75 13.5 13.5486 13.9931 13.1458 14.3958C12.7431 14.7986 12.25 15 11.6667 15C11.0833 15 10.5903 14.7986 10.1875 14.3958C9.78472 13.9931 9.58333 13.5 9.58333 12.9167V8.75H8.33333V15H0ZM1.66667 5.83333H6.66667V1.66667H1.66667V5.83333ZM11.6667 5.83333C11.9028 5.83333 12.1007 5.75347 12.2604 5.59375C12.4201 5.43403 12.5 5.23611 12.5 5C12.5 4.76389 12.4201 4.56597 12.2604 4.40625C12.1007 4.24653 11.9028 4.16667 11.6667 4.16667C11.4306 4.16667 11.2326 4.24653 11.0729 4.40625C10.9132 4.56597 10.8333 4.76389 10.8333 5C10.8333 5.23611 10.9132 5.43403 11.0729 5.59375C11.2326 5.75347 11.4306 5.83333 11.6667 5.83333ZM1.66667 13.3333H6.66667V7.5H1.66667V13.3333ZM6.66667 13.3333H1.66667H6.66667Z" fill="#C4C5D9"/>
</svg>
