<svg width="15" height="15" viewBox="0 0 15 15" fill="none" xmlns="http://www.w3.org/2000/svg">
<path d="M5 15C4.08333 15 3.29861 14.6736 2.64583 14.0208C1.99306 13.3681 1.66667 12.5833 1.66667 11.6667V4.85417C1.18056 4.67361 0.78125 4.37153 0.46875 3.94792C0.15625 3.52431 0 3.04167 0 2.5C0 1.80556 0.243056 1.21528 0.729167 0.729167C1.21528 0.243056 1.80556 0 2.5 0C3.19444 0 3.78472 0.243056 4.27083 0.729167C4.75694 1.21528 5 1.80556 5 2.5C5 3.04167 4.84375 3.52431 4.53125 3.94792C4.21875 4.37153 3.81944 4.67361 3.33333 4.85417V11.6667C3.33333 12.125 3.49653 12.5174 3.82292 12.8438C4.14931 13.1701 4.54167 13.3333 5 13.3333C5.45833 13.3333 5.85069 13.1701 6.17708 12.8438C6.50347 12.5174 6.66667 12.125 6.66667 11.6667V3.33333C6.66667 2.41667 6.99306 1.63194 7.64583 0.979167C8.29861 0.326389 9.08333 0 10 0C10.9167 0 11.7014 0.326389 12.3542 0.979167C13.0069 1.63194 13.3333 2.41667 13.3333 3.33333V10.1458C13.8194 10.3264 14.2188 10.6285 14.5312 11.0521C14.8438 11.4757 15 11.9583 15 12.5C15 13.1944 14.7569 13.7847 14.2708 14.2708C13.7847 14.7569 13.1944 15 12.5 15C11.8056 15 11.2153 14.7569 10.7292 14.2708C10.2431 13.7847 10 13.1944 10 12.5C10 11.9583 10.1562 11.4722 10.4688 11.0417C10.7812 10.6111 11.1806 10.3125 11.6667 10.1458V3.33333C11.6667 2.875 11.5035 2.48264 11.1771 2.15625C10.8507 1.82986 10.4583 1.66667 10 1.66667C9.54167 1.66667 9.14931 1.82986 8.82292 2.15625C8.49653 2.48264 8.33333 2.875 8.33333 3.33333V11.6667C8.33333 12.5833 8.00694 13.3681 7.35417 14.0208C6.70139 14.6736 5.91667 15 5 15ZM2.5 3.33333C2.73611 3.33333 2.93403 3.25347 3.09375 3.09375C3.25347 2.93403 3.33333 2.73611 3.33333 2.5C3.33333 2.26389 3.25347 2.06597 3.09375 1.90625C2.93403 1.74653 2.73611 1.66667 2.5 1.66667C2.26389 1.66667 2.06597 1.74653 1.90625 1.90625C1.74653 2.06597 1.66667 2.26389 1.66667 2.5C1.66667 2.73611 1.74653 2.93403 1.90625 3.09375C2.06597 3.25347 2.26389 3.33333 2.5 3.33333ZM12.5 13.3333C12.7361 13.3333 12.934 13.2535 13.0938 13.0938C13.2535 12.934 13.3333 12.7361 13.3333 12.5C13.3333 12.2639 13.2535 12.066 13.0938 11.9062C12.934 11.7465 12.7361 11.6667 12.5 11.6667C12.2639 11.6667 12.066 11.7465 11.9062 11.9062C11.7465 12.066 11.6667 12.2639 11.6667 12.5C11.6667 12.7361 11.7465 12.934 11.9062 13.0938C12.066 13.2535 12.2639 13.3333 12.5 13.3333Z" fill="#B8C3FF"/>
</svg>
