<svg width="25" height="25" viewBox="0 0 25 25" fill="none" xmlns="http://www.w3.org/2000/svg">
<path d="M6.68103 25C4.71602 25 3.47363 23.9809 3.38488 22.2752L2.52283 6.30261H1.11562C0.507099 6.30261 0 5.88171 0 5.32787C0 4.78512 0.507099 4.3642 1.11562 4.3642H6.74442V2.70271C6.74442 1.00798 7.98681 0 10.0786 0H14.896C17.0005 0 18.2302 1.00798 18.2302 2.70271V4.3642H23.8717C24.5056 4.3642 25 4.78512 25 5.32787C25 5.88171 24.5056 6.30261 23.8717 6.30261H22.4772L21.6151 22.264C21.5264 23.9699 20.2713 25 18.3316 25H6.68103ZM9.07706 2.80239V4.3642H15.8976V2.80239C15.8976 2.2264 15.4412 1.86088 14.7312 1.86088H10.2434C9.53346 1.86088 9.07706 2.2264 9.07706 2.80239ZM6.9219 23.0394H18.0527C18.7753 23.0394 19.2824 22.5963 19.3078 21.9428L20.1318 6.30261H4.81743L5.67951 21.9428C5.71754 22.5963 6.22463 23.0394 6.9219 23.0394ZM8.76014 21.256C8.25303 21.256 7.89806 20.9681 7.88539 20.525L7.50506 8.91672C7.49238 8.48472 7.83467 8.18565 8.36714 8.18565C8.87422 8.18565 9.22919 8.47364 9.24187 8.91672L9.62221 20.525C9.63487 20.957 9.29258 21.256 8.76014 21.256ZM12.5 21.256C11.9675 21.256 11.6126 20.957 11.6126 20.525V8.91672C11.6126 8.48472 11.9675 8.18565 12.5 8.18565C13.0324 8.18565 13.3874 8.48472 13.3874 8.91672V20.525C13.3874 20.957 13.0324 21.256 12.5 21.256ZM16.2398 21.256C15.7074 21.256 15.3524 20.957 15.3651 20.525L15.7581 8.91672C15.7708 8.47364 16.1257 8.18565 16.6328 8.18565C17.1526 8.18565 17.5076 8.48472 17.4949 8.91672L17.1019 20.525C17.0892 20.9681 16.7469 21.256 16.2398 21.256Z" fill="white"/>
</svg>
