<svg width="10" height="11" viewBox="0 0 10 11" fill="none" xmlns="http://www.w3.org/2000/svg">
<path d="M0 10.5V1.16667C0 0.845833 0.114236 0.571181 0.342708 0.342708C0.571181 0.114236 0.845833 0 1.16667 0H4.66667C4.9875 0 5.26215 0.114236 5.49062 0.342708C5.7191 0.571181 5.83333 0.845833 5.83333 1.16667V5.25H6.41667C6.7375 5.25 7.01215 5.36424 7.24062 5.59271C7.4691 5.82118 7.58333 6.09583 7.58333 6.41667V9.04167C7.58333 9.20694 7.63924 9.34549 7.75104 9.45729C7.86285 9.5691 8.00139 9.625 8.16667 9.625C8.33194 9.625 8.47049 9.5691 8.58229 9.45729C8.6941 9.34549 8.75 9.20694 8.75 9.04167V4.84167C8.6625 4.89028 8.57014 4.92188 8.47292 4.93646C8.37569 4.95104 8.27361 4.95833 8.16667 4.95833C7.75833 4.95833 7.41319 4.81736 7.13125 4.53542C6.84931 4.25347 6.70833 3.90833 6.70833 3.5C6.70833 3.18889 6.7934 2.90937 6.96354 2.66146C7.13368 2.41354 7.35972 2.23611 7.64167 2.12917L6.41667 0.904167L7.02917 0.291667L9.1875 2.39167C9.33333 2.5375 9.44271 2.70764 9.51562 2.90208C9.58854 3.09653 9.625 3.29583 9.625 3.5V9.04167C9.625 9.45 9.48403 9.79514 9.20208 10.0771C8.92014 10.359 8.575 10.5 8.16667 10.5C7.75833 10.5 7.41319 10.359 7.13125 10.0771C6.84931 9.79514 6.70833 9.45 6.70833 9.04167V6.125H5.83333V10.5H0ZM1.16667 4.08333H4.66667V1.16667H1.16667V4.08333ZM8.16667 4.08333C8.33194 4.08333 8.47049 4.02743 8.58229 3.91563C8.6941 3.80382 8.75 3.66528 8.75 3.5C8.75 3.33472 8.6941 3.19618 8.58229 3.08437C8.47049 2.97257 8.33194 2.91667 8.16667 2.91667C8.00139 2.91667 7.86285 2.97257 7.75104 3.08437C7.63924 3.19618 7.58333 3.33472 7.58333 3.5C7.58333 3.66528 7.63924 3.80382 7.75104 3.91563C7.86285 4.02743 8.00139 4.08333 8.16667 4.08333ZM1.16667 9.33333H4.66667V5.25H1.16667V9.33333ZM4.66667 9.33333H1.16667H4.66667Z" fill="#00DCE5"/>
</svg>
